<?xml version="1.0" encoding="UTF-8"?>
<!DOCTYPE svg PUBLIC "-//W3C//DTD SVG 1.1//EN" "http://www.w3.org/Graphics/SVG/1.1/DTD/svg11.dtd">
<!-- Creator: CorelDRAW 2019 (64-Bit) -->
<svg xmlns="http://www.w3.org/2000/svg" xml:space="preserve" width="203.2mm" height="101.6mm" version="1.1" style="shape-rendering:geometricPrecision; text-rendering:geometricPrecision; image-rendering:optimizeQuality; fill-rule:evenodd; clip-rule:evenodd"
viewBox="0 0 20320 10160"
 xmlns:xlink="http://www.w3.org/1999/xlink">
 <defs>
  <style type="text/css">
   <![CDATA[
    .fil2 {fill:#419EBD}
    .fil0 {fill:#419EBD;fill-rule:nonzero}
    .fil1 {fill:#F8AD17;fill-rule:nonzero}
   ]]>
  </style>
 </defs>
 <g id="Layer_x0020_1">
  <metadata id="CorelCorpID_0Corel-Layer"/>
  <polygon class="fil0" points="4016.88,3698.93 4582.04,4413.23 4552.61,3677.37 5031.38,3658.36 5096.72,5291.57 4706.21,5307.38 4114.78,4562.03 4145.67,5329.62 3668.12,5349.04 3602.37,3715.43 "/>
  <path id="1" class="fil0" d="M5961.71 5269.61c-246.92,10.07 -432.5,-40.54 -556.36,-151 -124.27,-110.88 -190.87,-280.41 -200.23,-509.02 -8.59,-222.1 42.35,-394.26 153.62,-516.49 111.27,-122.23 272.66,-187.66 484.59,-195.88 195.26,-7.92 347.48,45.36 457.09,159.41 109.61,114.04 168.53,275 176.79,482.86l5.01 128.54 -784.27 31.62c9.42,63.9 43.74,110.45 102.56,139.63 58.82,28.79 135.2,41.39 228.76,37.82 143.6,-5.74 295.9,-43.57 456.91,-113.89l15.06 379.93c-162.27,76.41 -342.24,118.56 -539.53,126.47zm-274.93 -840.46l326.24 -12.92c-2.16,-54.1 -17.39,-96.88 -46.09,-128.34 -28.71,-31.48 -70.12,-45.93 -124.22,-43.77 -53.69,2.15 -93.65,20.23 -119.86,53.85 -26.19,33.61 -38.22,77.48 -36.07,131.18z"/>
  <path id="2" class="fil0" d="M7350.62 5204.22c-246.92,10.07 -432.5,-40.54 -556.36,-150.99 -124.26,-110.88 -190.87,-280.42 -200.23,-509.03 -8.59,-222.09 42.35,-394.26 153.62,-516.49 111.27,-122.22 272.67,-187.66 484.59,-195.88 195.26,-7.91 347.48,45.36 457.1,159.41 109.6,114.04 168.52,275 176.78,482.86l5.01 128.55 -784.27 31.61c9.42,63.9 43.74,110.45 102.56,139.63 58.82,28.79 135.2,41.39 228.76,37.82 143.6,-5.74 295.9,-43.57 456.91,-113.89l15.06 379.94c-162.26,76.4 -342.24,118.55 -539.53,126.46zm-274.92 -840.46l326.23 -12.92c-2.16,-54.1 -17.39,-96.88 -46.09,-128.34 -28.71,-31.48 -70.12,-45.93 -124.21,-43.77 -53.7,2.15 -93.66,20.24 -119.86,53.86 -26.2,33.61 -38.23,77.47 -36.07,131.17z"/>
  <path id="3" class="fil0" d="M8782.57 3775.43l-15.79 -395.39 478.36 -19.01 69.29 1730.83 -622.36 25.16c-454.78,18.33 -691.15,-196.04 -709.11,-643.09 -8.25,-207.05 47.54,-374.71 168.2,-503.39 120.25,-128.29 286.14,-196.95 497.25,-205.18 28.48,-1.06 73.2,2.02 134.16,10.07zm-67.96 925.67l104.95 -4.32 -20.5 -504.82c-23.97,-3.78 -49.58,-5.14 -77.65,-4.07 -75.26,3.26 -135.99,29.37 -181.4,79.16 -45.81,49.37 -67.3,111.89 -64.03,187.14 2.83,79.32 25.27,141.26 66.11,185.39 41.25,43.74 98.9,64.37 172.52,61.52z"/>
  <path class="fil0" d="M10496.55 4925.08c-248.05,4.46 -437.67,-56.71 -568.85,-184.42 -130.74,-127.27 -198.55,-316.04 -202.99,-565.91l-21.02 -1110.32 532.75 -9.99 7.08 380.2 378.86 -7.08 8.65 471.64 -378.86 7.09 4.92 248.05c1.93,103.21 33.5,176.76 95.17,220.67 62.13,43.92 149.32,64.95 262.47,62.64l26.26 -0.26 9.1 471.65c-48.5,9.59 -99.68,15.09 -153.54,16.04z"/>
  <path id="1" class="fil0" d="M12095.66 4699.79c-127.71,132.09 -317.86,200.35 -570.43,204.78 -252.57,4.87 -445.81,-56.33 -578.81,-184.06 -133,-127.27 -202.17,-316.52 -206.59,-568.63 -4.89,-251.68 57.2,-442.64 185.36,-573.83 128.17,-130.73 318.76,-198.52 571.34,-203.41 252.57,-4.42 445.36,55.88 577.91,182.24 132.56,125.91 201.28,314.7 206.16,566.38 4.43,252.56 -57.22,444.9 -184.94,576.53zm-748.6 -352.79c37.62,51.88 94.01,77.2 169.15,75.5 75.13,-1.24 130.55,-28.43 165.81,-82.02 35.7,-53.13 52.97,-122.24 51.34,-206.89 -1.63,-83.74 -21.03,-150.86 -58.66,-201.83 -37.63,-50.52 -94.02,-74.94 -169.16,-73.7 -75.14,1.7 -130.56,28.43 -166.25,80.21 -35.69,51.77 -52.5,119.53 -50.87,203.72 1.17,84.64 21.02,153.13 58.64,205.01z"/>
  <path class="fil1" d="M7841.6 6967.79c234.54,144.64 359.34,336.64 374.38,578.19 17.39,273.17 -62.58,497.28 -239.92,672.32 -177.34,175.05 -438.53,273.63 -783.59,295.75l-1252.27 79.1 -183.39 -2883.38 1187.57 -75.85c347.94,-21.41 620.08,34.55 817.19,170.06 197.1,135.5 303.96,336.96 321.32,604.38 12.7,207.04 -67.5,393.75 -241.29,559.43zm-913.32 -631.91l-267.43 16.63 26.1 412.64 267.42 -17.36c79.79,-4.77 141.52,-26.69 185.16,-64.34 44.37,-38.37 64.2,-90.98 60.22,-157.83 -4.7,-67.58 -30.87,-117.05 -79.23,-149.14 -48.38,-32.07 -112.45,-45.37 -192.24,-40.6zm-201.82 1048.94l27.64 430.59 283.24 -17.45c84.11,-5.51 150.13,-29.62 197.35,-71.6 47.22,-42.7 68.48,-98.2 64.48,-166.49 -4.7,-69.01 -32.32,-119.91 -83.56,-151.98 -51.25,-32.79 -119.65,-46.77 -205.19,-41.25l-283.96 18.18z"/>
  <path class="fil1" d="M10402.55 7647.7c-177.95,195.19 -449.15,303.89 -812.9,326.83 -364.46,23.68 -647.51,-50.21 -849.14,-221.64 -201.61,-170.72 -313.16,-437.6 -336.82,-800.63l-81.48 -1290.37 844.67 -53.75 83.79 1318.41c5.56,90.58 34.02,162.33 83.93,213.82 50.63,51.48 119.09,74.83 206.07,69.29 86.99,-5.53 152.25,-36.83 195.79,-94.61 43.53,-57.79 62.52,-131.96 56.24,-223.25l-83.06 -1317.7 842.51 -53.73 82.19 1291.09c22.94,362.31 -54.56,641.77 -231.79,836.24z"/>
  <path class="fil1" d="M12259.77 6679.08l-79.07 -1248.69 842.51 -53.73 140.71 2213.41c14.29,234.35 -27,433.79 -124.57,599.75 -98.29,165.97 -237.08,291.89 -417.09,377.06 -180.74,85.17 -396.9,136.04 -649.22,151.87 -338.59,21.36 -666.72,-12.72 -983.65,-102.23l-44.31 -704.49c359.45,104.36 656.7,148.69 890.33,133.68 367.35,-22.96 543.51,-152.7 528.5,-387.77l-6.34 -102.8c-146.71,124.54 -321.07,193.14 -523.07,205.8 -290.43,18.2 -518.12,-60.31 -683.1,-236.28 -164.97,-175.95 -258.48,-431.42 -279.82,-766.42l-78.31 -1240.06 844.67 -53.74 79.08 1248.67c6.28,91.3 34.01,162.33 84.66,214.54 50.63,51.49 119.08,74.83 206.06,69.29 86.98,-5.53 151.52,-37.54 195.06,-95.33 43.54,-57.05 62.52,-131.95 56.97,-222.53z"/>
  <path class="fil2" d="M4597.72 5943.51l0 0c170.14,-4.65 313.13,130.7 317.78,300.83l80.83 2955.67 8560.43 -234.1 2367.88 -2500.99 -2523.24 -2388.91 -510.4 13.96c-170.14,4.65 -313.1,-130.73 -317.75,-300.8l-8.46 -309.32 1115.44 -30.51c76.34,-11.94 164.67,54.28 217.05,103.83l2759.42 2612.52c30.52,28.9 54.88,61.98 72.95,97.58 87.57,136.14 74.85,320.38 -41.14,442.9l-2612.52 2759.42c-78.55,82.97 -188.02,120.2 -294.24,110.71l0.07 2.5 -9052.24 247.55c-16.26,0.44 -32.31,-0.39 -47.96,-2.4 -160.12,-7.12 -291.04,-137.96 -295.49,-300.65l-89.21 -3262.04c-4.65,-170.14 130.73,-313.1 300.8,-317.75z"/>
  <circle class="fil2" transform="matrix(3.43084 -0.0938225 0.0938225 3.43084 14034.3 6352.91)" r="115.75"/>
  <path class="fil2" d="M13057.46 51.34l2130.27 760.72 23.14 698.16 -2131.85 -653.23 -1430.59 1104.41 -0.01 0.02 -0.01 0 -1336.03 1031.41 1045.6 -1120.41 -983.85 -301.48 -2766.64 2135.84 2745.08 -2941.48 1529.02 546.04 1175.87 -1260zm133.8 1189.99l1770.77 635.66 11.36 2406.4 -1105.73 -1070.1 -699.12 3.12 22.72 -1975.08z"/>
 </g>
</svg>
