<svg id="Layer_1" data-name="Layer 1" xmlns="http://www.w3.org/2000/svg" viewBox="0 0 373.73 277.09"><defs><style>.cls-1,.cls-3{fill:#419ebd;}.cls-2{fill:#f8ad17;}.cls-3{fill-rule:evenodd;}</style></defs><g id="Layer_1-2" data-name="Layer_1"><polygon class="cls-1" points="11.75 103.4 27.77 123.64 26.94 102.78 40.51 102.25 42.36 148.54 31.29 148.99 14.53 127.86 15.4 149.62 1.86 150.17 0 103.86 11.75 103.4"/><path id="_1" data-name="1" class="cls-1" d="M66.88,147.92q-10.5.42-15.77-4.28t-5.68-14.43c-.24-6.3,1.2-11.18,4.36-14.64s7.73-5.32,13.73-5.55q8.31-.34,13,4.52t5,13.68l.14,3.65-22.23.89a5,5,0,0,0,2.91,4,13.56,13.56,0,0,0,6.48,1.07,35.94,35.94,0,0,0,13-3.23l.42,10.77A39.07,39.07,0,0,1,66.88,147.92ZM59.09,124.1l9.24-.37a5.55,5.55,0,0,0-1.3-3.64,4.3,4.3,0,0,0-3.52-1.24,4.24,4.24,0,0,0-3.4,1.53,5.46,5.46,0,0,0-1,3.72Z"/><path id="_2" data-name="2" class="cls-1" d="M106.25,146.07q-10.5.42-15.77-4.28T84.8,127.36c-.24-6.3,1.2-11.18,4.36-14.64s7.73-5.32,13.73-5.56q8.31-.33,13,4.52t5,13.69L121,129l-22.23.9a5,5,0,0,0,2.91,4,13.68,13.68,0,0,0,6.48,1.07,36.1,36.1,0,0,0,13-3.23l.42,10.77a39.25,39.25,0,0,1-15.29,3.59Zm-7.79-23.83,9.24-.36a5.53,5.53,0,0,0-1.3-3.64,5,5,0,0,0-6.92.28,5.54,5.54,0,0,0-1,3.72Z"/><path id="_3" data-name="3" class="cls-1" d="M146.84,105.56l-.45-11.2L160,93.82l2,49.06-17.65.71q-19.34.78-20.1-18.23-.35-8.79,4.77-14.26t14.1-5.82A25.85,25.85,0,0,1,146.84,105.56Zm-1.93,26.24,3-.12-.58-14.31a11.14,11.14,0,0,0-2.2-.11,6.94,6.94,0,0,0-7,7.55,7.93,7.93,0,0,0,1.87,5.25,6,6,0,0,0,4.89,1.74Z"/><path class="cls-1" d="M195.43,138.15q-10.56.19-16.13-5.22t-5.75-16.05L173,85.41l15.1-.28.2,10.77L199,95.7l.25,13.37-10.74.2.14,7c.05,2.92,1,5,2.7,6.25s4.23,1.84,7.44,1.78h.74l.26,13.37a24.27,24.27,0,0,1-4.35.45Z"/><path id="_1-2" data-name="1" class="cls-1" d="M240.75,131.77q-5.43,5.61-16.16,5.8t-16.41-5.22q-5.66-5.4-5.86-16.11c-.14-7.14,1.62-12.55,5.26-16.27s9-5.63,16.19-5.77,12.63,1.59,16.38,5.17,5.71,8.92,5.85,16-1.62,12.62-5.25,16.35Zm-21.22-10a6.17,6.17,0,0,0,9.5-.19,9.93,9.93,0,0,0,1.45-5.86,9.63,9.63,0,0,0-1.66-5.72,5.42,5.42,0,0,0-4.79-2.09,5.51,5.51,0,0,0-4.72,2.27,9.7,9.7,0,0,0-1.44,5.78,10,10,0,0,0,1.66,5.81Z"/><path class="cls-2" d="M120.17,196.06c6.65,4.1,10.18,9.54,10.61,16.39q.74,11.61-6.8,19.05t-22.21,8.39l-35.5,2.24-5.2-81.73,33.66-2.15c9.87-.61,17.58,1,23.17,4.82s8.61,9.55,9.11,17.13q.54,8.81-6.84,15.86ZM94.28,178.14l-7.58.48.74,11.69,7.58-.49a8.65,8.65,0,0,0,5.25-1.82,5.8,5.8,0,0,0-.54-8.7A8.77,8.77,0,0,0,94.28,178.14Zm-5.72,29.74.78,12.2,8-.49a9.11,9.11,0,0,0,5.59-2,5.59,5.59,0,0,0,1.83-4.72,5.13,5.13,0,0,0-2.37-4.31,9.52,9.52,0,0,0-5.81-1.17l-8,.52Z"/><path class="cls-2" d="M192.76,215.33q-7.56,8.29-23,9.26t-24.07-6.28c-5.72-4.84-8.88-12.4-9.55-22.69L133.79,159l23.94-1.52,2.38,37.37a9.21,9.21,0,0,0,2.38,6.06,8.17,8.17,0,0,0,11.39-.72,9.14,9.14,0,0,0,1.59-6.33l-2.35-37.35L197,155l2.33,36.6C200,201.9,197.78,209.82,192.76,215.33Z"/><path class="cls-2" d="M245.41,187.87l-2.24-35.39L267.05,151l4,62.75c.4,6.64-.77,12.29-3.54,17a26.68,26.68,0,0,1-11.82,10.69,50.47,50.47,0,0,1-18.4,4.3,82.51,82.51,0,0,1-27.88-2.9l-1.26-20q15.29,4.44,25.24,3.79c10.41-.65,15.4-4.33,15-11l-.18-2.91a24.67,24.67,0,0,1-14.83,5.83q-12.34.78-19.36-6.7t-7.93-21.72L203.84,155l23.94-1.53,2.24,35.4a9.33,9.33,0,0,0,2.4,6.08,7.13,7.13,0,0,0,5.84,2,7,7,0,0,0,5.53-2.7,9.2,9.2,0,0,0,1.62-6.31Z"/><path class="cls-3" d="M28.21,167h0a8.8,8.8,0,0,1,9,8.53l2.29,83.78,242.66-6.63,67.12-70.9-71.52-67.71-14.47.39a8.8,8.8,0,0,1-9-8.53l-.24-8.76,31.62-.87c2.17-.34,4.67,1.54,6.15,2.94L370,173.32a10,10,0,0,1,2.07,2.77A10.26,10.26,0,0,1,371,188.64l-74.06,78.22a10.22,10.22,0,0,1-8.34,3.14v.07l-256.6,7a8.79,8.79,0,0,1-1.36-.07,8.79,8.79,0,0,1-8.37-8.52L19.69,176a8.8,8.8,0,0,1,8.52-9Z"/><circle class="cls-1" cx="295.71" cy="178.63" r="11.26"/><path class="cls-3" d="M268,0,328.4,21.56l.66,19.79L268.63,22.84l-40.55,31.3h0L190.21,83.38l29.63-31.76L192,43.08l-78.43,60.54,77.81-83.38,43.35,15.48Zm3.79,33.73,50.2,18,.32,68.21L291,89.63l-19.81.09Z"/></g></svg>