<svg id="Layer_1" data-name="Layer 1" xmlns="http://www.w3.org/2000/svg" viewBox="0 0 335.74 248.92"><defs><style>.cls-1,.cls-2{fill:#fff;}.cls-2{fill-rule:evenodd;}</style></defs><g id="Layer_1-2" data-name="Layer_1"><polygon class="cls-1" points="10.55 92.89 24.95 111.08 24.2 92.34 36.39 91.85 38.05 133.44 28.11 133.85 13.05 114.86 13.84 134.41 1.67 134.91 0 93.31 10.55 92.89"/><path id="_1" data-name="1" class="cls-1" d="M60.08,132.88q-9.44.39-14.17-3.84t-5.1-13c-.21-5.66,1.08-10,3.92-13.16s6.94-4.77,12.34-5c5-.21,8.84,1.15,11.64,4.06s4.29,7,4.5,12.29l.12,3.27-20,.81A4.53,4.53,0,0,0,56,121.93a12.23,12.23,0,0,0,5.82,1A32.5,32.5,0,0,0,73.44,120l.38,9.67a35.15,35.15,0,0,1-13.74,3.22Zm-7-21.4,8.31-.33a5,5,0,0,0-1.18-3.27,4.51,4.51,0,0,0-6.21.26A4.91,4.91,0,0,0,53.08,111.48Z"/><path id="_2" data-name="2" class="cls-1" d="M95.45,131.22q-9.44.39-14.17-3.85t-5.1-13q-.33-8.47,3.91-13.15t12.34-5c5-.2,8.85,1.16,11.64,4.06s4.3,7,4.51,12.3l.12,3.27-20,.8a4.52,4.52,0,0,0,2.61,3.56,12.3,12.3,0,0,0,5.83,1,32.24,32.24,0,0,0,11.63-2.9l.39,9.68a35.33,35.33,0,0,1-13.74,3.22Zm-7-21.4,8.3-.33a5,5,0,0,0-1.17-3.27,4.49,4.49,0,0,0-6.21.26,4.89,4.89,0,0,0-.92,3.34Z"/><path id="_3" data-name="3" class="cls-1" d="M131.91,94.83l-.4-10.06,12.18-.49,1.77,44.08-15.85.64q-17.37.69-18.06-16.38-.31-7.91,4.28-12.82c3.07-3.26,7.29-5,12.67-5.22a22.34,22.34,0,0,1,3.41.25Zm-1.73,23.58,2.68-.11-.53-12.86a10.39,10.39,0,0,0-2-.1,6.24,6.24,0,0,0-6.25,6.78,7.07,7.07,0,0,0,1.68,4.72A5.47,5.47,0,0,0,130.18,118.41Z"/><path class="cls-1" d="M175.56,124.11c-6.32.11-11.14-1.44-14.49-4.7s-5-8-5.16-14.41l-.54-28.27,13.57-.26.18,9.69,9.64-.18L179,98l-9.64.18.12,6.31q.07,3.94,2.43,5.62a11,11,0,0,0,6.68,1.6h.67l.23,12a21.21,21.21,0,0,1-3.91.41Z"/><path id="_1-2" data-name="1" class="cls-1" d="M216.28,118.37q-4.87,5.05-14.52,5.22T187,118.9q-5.09-4.86-5.26-14.48t4.72-14.61q4.89-5,14.55-5.18c6.43-.11,11.34,1.42,14.71,4.64s5.13,8,5.25,14.42-1.46,11.33-4.71,14.68Zm-19.06-9a5.54,5.54,0,0,0,8.53-.17,9,9,0,0,0,1.31-5.27,8.74,8.74,0,0,0-1.5-5.13A5.63,5.63,0,0,0,197,99a8.58,8.58,0,0,0-1.29,5.19A8.92,8.92,0,0,0,197.22,109.39Z"/><path class="cls-1" d="M108,176.13c6,3.68,9.15,8.57,9.54,14.72q.66,10.44-6.11,17.12t-20,7.53l-31.89,2-4.67-73.43,30.24-1.93c8.86-.54,15.79.88,20.81,4.33s7.74,8.58,8.19,15.39q.48,7.91-6.15,14.25ZM84.69,160l-6.81.42L78.55,171l6.81-.44a7.78,7.78,0,0,0,4.71-1.64,5.19,5.19,0,0,0-.48-7.82A7.77,7.77,0,0,0,84.69,160Zm-5.13,26.71.7,11,7.21-.44a8.25,8.25,0,0,0,5-1.82,5,5,0,0,0,1.64-4.24A4.61,4.61,0,0,0,92,187.34a8.49,8.49,0,0,0-5.22-1.06l-7.23.47Z"/><path class="cls-1" d="M173.17,193.44q-6.79,7.45-20.7,8.32t-21.63-5.64c-5.13-4.35-8-11.14-8.57-20.39l-2.08-32.86,21.51-1.37,2.13,33.58a8.34,8.34,0,0,0,2.14,5.44,7.32,7.32,0,0,0,10.23-.64,8.2,8.2,0,0,0,1.44-5.69l-2.12-33.55L177,139.27l2.09,32.88c.58,9.22-1.39,16.34-5.9,21.29Z"/><path class="cls-1" d="M220.46,168.78l-2-31.8,21.45-1.37L243.49,192c.36,6-.69,11.05-3.18,15.28a23.92,23.92,0,0,1-10.62,9.6,45.37,45.37,0,0,1-16.53,3.87,74.41,74.41,0,0,1-25-2.61L187,200.17q13.74,4,22.67,3.41,14-.89,13.46-9.88l-.16-2.62a22.13,22.13,0,0,1-13.32,5.25q-11.08.69-17.39-6t-7.13-19.52l-2-31.58,21.51-1.37,2,31.8a8.36,8.36,0,0,0,2.16,5.47,7.28,7.28,0,0,0,10.21-.67A8.24,8.24,0,0,0,220.46,168.78Z"/><path class="cls-2" d="M25.35,150h0a7.91,7.91,0,0,1,8.09,7.67L35.5,233l218-6,60.3-63.69-64.26-60.83-13,.35a7.9,7.9,0,0,1-8.1-7.66l-.21-7.87,28.4-.78c1.95-.3,4.2,1.38,5.53,2.64l70.27,66.53a9.06,9.06,0,0,1,1.86,2.49,9.22,9.22,0,0,1-1.05,11.28l-66.53,70.26a9.12,9.12,0,0,1-7.49,2.82v.07L28.7,248.92a8.24,8.24,0,0,1-1.22-.06A7.9,7.9,0,0,1,20,241.2l-2.27-83.06A7.91,7.91,0,0,1,25.35,150Z"/><circle class="cls-1" cx="265.65" cy="160.47" r="10.12"/><polygon class="cls-2" points="171.89 18.18 214.6 33.43 204.89 48.64 172.44 38.7 101.99 93.09 171.89 18.18"/><polygon class="cls-2" points="240.78 0 295.02 19.37 295.61 37.15 241.32 20.52 170.87 74.91 240.78 0"/><polygon class="cls-2" points="244.18 30.3 289.27 46.49 289.56 107.77 261.41 80.52 243.6 80.6 244.18 30.3"/></g></svg>